<?xml version="1.0" encoding="UTF-8"?>
<svg id="Layer_1" data-name="Layer 1" xmlns="http://www.w3.org/2000/svg" viewBox="0 0 17.19 19.27">
  <path d="M15.53,1.31h-3.91v.62h3.9c.55,0,1,.42,1,.93v14.86c0,.51-.45.93-1,.93H1.67c-.55,0-1-.42-1-.93V2.86c0-.51.45-.93,1-.93h3.59v-.62H1.66c-.92,0-1.66.69-1.66,1.54v14.88c0,.85.74,1.54,1.66,1.54h13.86c.92,0,1.66-.69,1.66-1.54V2.85c0-.85-.74-1.54-1.66-1.54h0Z"/>
  <path d="M9.89.62c.27,0,.49.22.49.49v1.09c0,.27-.22.49-.49.49h-2.9c-.27,0-.49-.22-.49-.49v-1.09c0-.27.22-.49.49-.49h2.9M9.89,0h-2.9c-.61,0-1.1.49-1.1,1.1v1.09c0,.61.49,1.1,1.1,1.1h2.9c.61,0,1.1-.49,1.1-1.1v-1.09c0-.61-.49-1.1-1.1-1.1h0Z"/>
</svg>