<svg xmlns="http://www.w3.org/2000/svg" viewBox="0 0 48 48"><title>color scheme Pantone</title><g id="color_scheme_Pantone" data-name="color scheme Pantone"><path d="M45,34H23.89L38.82,19.08a3,3,0,0,0,0-4.25L33.16,9.18a3,3,0,0,0-4.24,0C9.2,28.9,26.34,11.77,14,24.11V3a3,3,0,0,0-3-3H3A3,3,0,0,0,0,3V45a3,3,0,0,0,3,3H45a3,3,0,0,0,3-3V37A3,3,0,0,0,45,34ZM26,36V46H18V36Zm2,0h8V46H28ZM15.55,34l-4.31-4.31C15.63,25.3,13,27.92,16.9,24L24,31.1,21.07,34ZM2,34.18V32H6.11l-2,2A5.72,5.72,0,0,0,2,34.18ZM12,20H2V12H12ZM9.83,31.1l2.9,2.9H6.93ZM24,17,31,24l-5.66,5.65-7.06-7.06Zm6.37-6.36a1,1,0,0,1,1.41,0l5.65,5.64a1,1,0,0,1,0,1.42l-4.95,4.95-7.06-7.06ZM8.11,30H2V22H12v4.11ZM3,2h8a1,1,0,0,1,1,1v7H2V3A1,1,0,0,1,3,2ZM2,45V37a1,1,0,0,1,1-1H16V46H3A1,1,0,0,1,2,45Zm44,0a1,1,0,0,1-1,1H38V36h7a1,1,0,0,1,1,1Z"/><path d="M9,38a3,3,0,1,0,3,3A3,3,0,0,0,9,38Zm0,4a1,1,0,0,1,0-2A1,1,0,0,1,9,42Z"/></g></svg>