<?xml version="1.0" encoding="UTF-8"?>
<svg id="Layer_1" data-name="Layer 1" xmlns="http://www.w3.org/2000/svg" viewBox="0 0 97.01 36.02">
  <defs>
    <style>
      .cls-1 {
        fill: #fab196;
      }

      .cls-2 {
        font-size: 2.5px;
      }

      .cls-2, .cls-3 {
        fill: #f04a14;
      }

      .cls-2, .cls-4 {
        font-family: ArialRoundedMTBold, 'Arial Rounded MT Bold';
      }

      .cls-5 {
        letter-spacing: .6em;
      }

      .cls-6 {
        letter-spacing: .64em;
      }

      .cls-7 {
        letter-spacing: .64em;
      }

      .cls-8 {
        letter-spacing: .65em;
      }

      .cls-9 {
        letter-spacing: .65em;
      }

      .cls-10 {
        letter-spacing: .56em;
      }

      .cls-4 {
        font-size: 15px;
      }
    </style>
  </defs>
  <g>
    <text class="cls-4" transform="translate(25.59 23.14)"><tspan x="0" y="0">Lume</tspan><tspan class="cls-3" x="40.31" y="0">CSS</tspan></text>
    <text class="cls-2" transform="translate(26.72 27.64)"><tspan class="cls-8" x="0" y="0">IL</tspan><tspan class="cls-5" x="5.54" y="0">L</tspan><tspan class="cls-8" x="8.55" y="0">UMI</tspan><tspan class="cls-7" x="18.19" y="0">N</tspan><tspan class="cls-10" x="21.68" y="0">A</tspan><tspan class="cls-8" x="24.89" y="0">TE </tspan><tspan class="cls-6" x="33.62" y="0">Y</tspan><tspan class="cls-9" x="36.77" y="0">OUR WEB</tspan></text>
  </g>
  <g>
    <path class="cls-3" d="M15.03,30.48L1.88,17.33c-2.51-2.51-2.51-6.57,0-9.08l2.77-2.77,13.15,13.15c2.51,2.51,2.51,6.57,0,9.08l-2.77,2.77Z"/>
    <path class="cls-3" d="M15.95,8.82l-4.06,4.06-7.31-7.31L8.64,1.51c2.02-2.02,5.29-2.02,7.31,0h0c2.02,2.02,2.02,5.29,0,7.31Z"/>
    <path class="cls-3" d="M3.7,27.2l4.06-4.06,7.31,7.31-4.06,4.06c-2.02,2.02-5.29,2.02-7.31,0h0c-2.02-2.02-2.02-5.29,0-7.31Z"/>
    <path class="cls-1" d="M15.95,8.82l-4.06,4.06-3.65-3.65c-2.02-2.02-2.02-5.29,0-7.31l.41-.41c2.02-2.02,5.29-2.02,7.31,0h0c2.02,2.02,2.02,5.29,0,7.31Z"/>
  </g>
</svg>