<?xml version="1.0" encoding="UTF-8"?>
<svg id="Layer_1" data-name="Layer 1" xmlns="http://www.w3.org/2000/svg" viewBox="0 0 13.37 24.53">
  <defs>
    <style>
      .cls-1 {
        fill: #fab196;
      }

      .cls-2 {
        fill: #f04a14;
      }
    </style>
  </defs>
  <path class="cls-2" d="M10.21,20.77L1.28,11.83c-1.7-1.7-1.7-4.46,0-6.17l1.88-1.88,8.93,8.93c1.7,1.7,1.7,4.46,0,6.17l-1.88,1.88Z"/>
  <path class="cls-2" d="M10.88,5.99l-2.76,2.76L3.15,3.79l2.76-2.76c1.37-1.37,3.59-1.37,4.97,0h0c1.37,1.37,1.37,3.59,0,4.97Z"/>
  <path class="cls-2" d="M2.51,18.54l2.76-2.76,4.97,4.97-2.76,2.76c-1.37,1.37-3.59,1.37-4.97,0h0c-1.37-1.37-1.37-3.59,0-4.97Z"/>
  <path class="cls-1" d="M10.88,5.99l-2.76,2.76-2.48-2.48c-1.37-1.37-1.37-3.59,0-4.97l.28-.28c1.37-1.37,3.59-1.37,4.97,0h0c1.37,1.37,1.37,3.59,0,4.97Z"/>
</svg>