<?xml version="1.0" encoding="UTF-8"?>
<svg id="Layer_1" data-name="Layer 1" xmlns="http://www.w3.org/2000/svg" viewBox="0 0 55.39 55.39">
  <defs>
    <style>
      .cls-1 {
        stroke: #231f20;
        stroke-miterlimit: 10;
        stroke-width: 1.62px;
      }
    </style>
  </defs>
  <path class="cls-1" d="M27.7.81C12.85.81.81,12.85.81,27.7s12.04,26.89,26.89,26.89,26.89-12.04,26.89-26.89S42.54.81,27.7.81ZM40.04,22.24l-13.8,13.8c-.34.34-1.02,1.14-1.45,1.23-.93.45-1.89-.32-2.62-1.05-2.26-2.26-4.51-4.51-6.77-6.77-.99-.99-.92-2.54,0-3.54.91-.99,2.61-.93,3.54,0,1.73,1.73,3.45,3.45,5.18,5.18l12.4-12.4c.99-.99,2.54-.92,3.54,0,.99.91.93,2.61,0,3.54Z"/>
</svg>