<?xml version="1.0" encoding="UTF-8"?>
<svg id="Layer_1" data-name="Layer 1" xmlns="http://www.w3.org/2000/svg" viewBox="0 0 49.08 43.59">
  <defs>
    <style>
      .cls-1 {
        stroke: #231f20;
        stroke-miterlimit: 10;
        stroke-width: 1.28px;
      }
    </style>
  </defs>
  <path class="cls-1" d="M47.97,37.8L27.51,2.36c-1.32-2.29-4.62-2.29-5.94,0L1.11,37.8c-1.32,2.29.33,5.15,2.97,5.15h40.92c2.64,0,4.29-2.86,2.97-5.15ZM24.81,37.7c-3.22,0-3.22-5,0-5s3.22,5,0,5ZM27.31,27.08c0,1.4-1.15,2.44-2.5,2.5-1.35.06-2.5-1.19-2.5-2.5v-11.73c0-1.4,1.15-2.44,2.5-2.5,1.35-.06,2.5,1.19,2.5,2.5v11.73Z"/>
</svg>